<?xml version="1.0" encoding="UTF-8" standalone="no"?>
<!-- Created with Inkscape (http://www.inkscape.org/) -->

<svg
   xmlns:dc="http://purl.org/dc/elements/1.1/"
   xmlns:cc="http://creativecommons.org/ns#"
   xmlns:rdf="http://www.w3.org/1999/02/22-rdf-syntax-ns#"
   xmlns:svg="http://www.w3.org/2000/svg"
   xmlns="http://www.w3.org/2000/svg"
   xmlns:sodipodi="http://sodipodi.sourceforge.net/DTD/sodipodi-0.dtd"
   xmlns:inkscape="http://www.inkscape.org/namespaces/inkscape"
   id="svg8"
   version="1.1"
   viewBox="0 0 210 297"
   height="297mm"
   width="210mm"
   inkscape:version="0.92.2 2405546, 2018-03-11"
   sodipodi:docname="model-content-bypass.svg"
   inkscape:export-filename="/home/v2john/projects/thesis/images/model-content-bypass.png"
   inkscape:export-xdpi="96"
   inkscape:export-ydpi="96">
  <sodipodi:namedview
     inkscape:window-maximized="1"
     inkscape:window-y="28"
     inkscape:window-x="0"
     inkscape:window-height="1388"
     inkscape:window-width="2560"
     showgrid="false"
     inkscape:current-layer="svg8"
     inkscape:document-units="mm"
     inkscape:cy="921.88523"
     inkscape:cx="395.32464"
     inkscape:zoom="1.4"
     inkscape:pageshadow="2"
     inkscape:pageopacity="0.0"
     borderopacity="1.0"
     bordercolor="#666666"
     pagecolor="#ffffff"
     id="base"
     inkscape:snap-text-baseline="false"
     inkscape:snap-global="false" />
  <defs
     id="defs2">
    <marker
       inkscape:isstock="true"
       style="overflow:visible;"
       id="marker1567"
       refX="0.0"
       refY="0.0"
       orient="auto"
       inkscape:stockid="Arrow1Lend">
      <path
         transform="scale(0.8) rotate(180) translate(12.5,0)"
         style="fill-rule:evenodd;stroke:#000000;stroke-width:1pt;stroke-opacity:1;fill:#000000;fill-opacity:1"
         d="M 0.0,0.0 L 5.0,-5.0 L -12.5,0.0 L 5.0,5.0 L 0.0,0.0 z "
         id="path1565" />
    </marker>
    <marker
       inkscape:stockid="Arrow1Lend"
       orient="auto"
       refY="0.0"
       refX="0.0"
       id="marker1497"
       style="overflow:visible;"
       inkscape:isstock="true"
       inkscape:collect="always">
      <path
         id="path1495"
         d="M 0.0,0.0 L 5.0,-5.0 L -12.5,0.0 L 5.0,5.0 L 0.0,0.0 z "
         style="fill-rule:evenodd;stroke:#000000;stroke-width:1pt;stroke-opacity:1;fill:#000000;fill-opacity:1"
         transform="scale(0.8) rotate(180) translate(12.5,0)" />
    </marker>
    <marker
       inkscape:isstock="true"
       style="overflow:visible;"
       id="marker1250"
       refX="0.0"
       refY="0.0"
       orient="auto"
       inkscape:stockid="Arrow1Lend">
      <path
         transform="scale(0.8) rotate(180) translate(12.5,0)"
         style="fill-rule:evenodd;stroke:#ff0000;stroke-width:1pt;stroke-opacity:1;fill:#ff0000;fill-opacity:1"
         d="M 0.0,0.0 L 5.0,-5.0 L -12.5,0.0 L 5.0,5.0 L 0.0,0.0 z "
         id="path1248" />
    </marker>
    <marker
       inkscape:stockid="Arrow1Lend"
       orient="auto"
       refY="0.0"
       refX="0.0"
       id="marker1192"
       style="overflow:visible;"
       inkscape:isstock="true"
       inkscape:collect="always">
      <path
         id="path932"
         d="M 0.0,0.0 L 5.0,-5.0 L -12.5,0.0 L 5.0,5.0 L 0.0,0.0 z "
         style="fill-rule:evenodd;stroke:#ff0000;stroke-width:1pt;stroke-opacity:1;fill:#ff0000;fill-opacity:1"
         transform="scale(0.8) rotate(180) translate(12.5,0)" />
    </marker>
    <marker
       inkscape:isstock="true"
       style="overflow:visible;"
       id="marker9435"
       refX="0.0"
       refY="0.0"
       orient="auto"
       inkscape:stockid="Arrow1Lend">
      <path
         transform="scale(0.8) rotate(180) translate(12.5,0)"
         style="fill-rule:evenodd;stroke:#000000;stroke-width:1pt;stroke-opacity:1;fill:#000000;fill-opacity:1"
         d="M 0.0,0.0 L 5.0,-5.0 L -12.5,0.0 L 5.0,5.0 L 0.0,0.0 z "
         id="path9433" />
    </marker>
    <marker
       inkscape:stockid="Arrow1Lend"
       orient="auto"
       refY="0.0"
       refX="0.0"
       id="marker6392"
       style="overflow:visible;"
       inkscape:isstock="true">
      <path
         id="path6390"
         d="M 0.0,0.0 L 5.0,-5.0 L -12.5,0.0 L 5.0,5.0 L 0.0,0.0 z "
         style="fill-rule:evenodd;stroke:#ff0000;stroke-width:1pt;stroke-opacity:1;fill:#ff0000;fill-opacity:1"
         transform="scale(0.8) rotate(180) translate(12.5,0)" />
    </marker>
    <marker
       inkscape:isstock="true"
       style="overflow:visible;"
       id="marker6061"
       refX="0.0"
       refY="0.0"
       orient="auto"
       inkscape:stockid="Arrow1Lend">
      <path
         transform="scale(0.8) rotate(180) translate(12.5,0)"
         style="fill-rule:evenodd;stroke:#ff0000;stroke-width:1pt;stroke-opacity:1;fill:#ff0000;fill-opacity:1"
         d="M 0.0,0.0 L 5.0,-5.0 L -12.5,0.0 L 5.0,5.0 L 0.0,0.0 z "
         id="path6059" />
    </marker>
    <marker
       inkscape:stockid="Arrow1Lend"
       orient="auto"
       refY="0.0"
       refX="0.0"
       id="Arrow1Lend"
       style="overflow:visible;"
       inkscape:isstock="true">
      <path
         id="path5466"
         d="M 0.0,0.0 L 5.0,-5.0 L -12.5,0.0 L 5.0,5.0 L 0.0,0.0 z "
         style="fill-rule:evenodd;stroke:#ff0000;stroke-width:1pt;stroke-opacity:1;fill:#ff0000;fill-opacity:1"
         transform="scale(0.8) rotate(180) translate(12.5,0)" />
    </marker>
    <marker
       inkscape:stockid="Arrow1Lstart"
       orient="auto"
       refY="0.0"
       refX="0.0"
       id="marker5753"
       style="overflow:visible"
       inkscape:isstock="true">
      <path
         id="path5751"
         d="M 0.0,0.0 L 5.0,-5.0 L -12.5,0.0 L 5.0,5.0 L 0.0,0.0 z "
         style="fill-rule:evenodd;stroke:#000000;stroke-width:1pt;stroke-opacity:1;fill:#000000;fill-opacity:1"
         transform="scale(0.8) translate(12.5,0)" />
    </marker>
    <marker
       inkscape:stockid="Arrow1Lstart"
       orient="auto"
       refY="0.0"
       refX="0.0"
       id="Arrow1Lstart"
       style="overflow:visible"
       inkscape:isstock="true">
      <path
         id="path5463"
         d="M 0.0,0.0 L 5.0,-5.0 L -12.5,0.0 L 5.0,5.0 L 0.0,0.0 z "
         style="fill-rule:evenodd;stroke:#000000;stroke-width:1pt;stroke-opacity:1;fill:#000000;fill-opacity:1"
         transform="scale(0.8) translate(12.5,0)" />
    </marker>
  </defs>
  <metadata
     id="metadata5">
    <rdf:RDF>
      <cc:Work
         rdf:about="">
        <dc:format>image/svg+xml</dc:format>
        <dc:type
           rdf:resource="http://purl.org/dc/dcmitype/StillImage" />
        <dc:title />
      </cc:Work>
    </rdf:RDF>
  </metadata>
  <g
     inkscape:label="Layer 1"
     inkscape:groupmode="layer"
     id="layer1" />
  <g
     transform="translate(0,-0.53141534)"
     id="g4932"
     inkscape:export-xdpi="96"
     inkscape:export-ydpi="96"
     style="stroke-width:0.52916667;stroke-miterlimit:4;stroke-dasharray:none">
    <text
       xml:space="preserve"
       style="font-style:normal;font-weight:normal;font-size:9.72712326px;line-height:1.25;font-family:sans-serif;letter-spacing:0px;word-spacing:0px;fill:#000000;fill-opacity:1;stroke:none;stroke-width:0.52916666;stroke-miterlimit:4;stroke-dasharray:none"
       x="44.182159"
       y="63.943878"
       id="text4858"
       transform="scale(0.98129486,1.0190617)"><tspan
         sodipodi:role="line"
         id="tspan4856"
         x="44.182159"
         y="63.943878"
         style="stroke-width:0.52916666;stroke-miterlimit:4;stroke-dasharray:none">GRU</tspan><tspan
         sodipodi:role="line"
         x="44.182159"
         y="76.102783"
         style="stroke-width:0.52916666;stroke-miterlimit:4;stroke-dasharray:none"
         id="tspan4860">RNN</tspan></text>
    <path
       style="fill:none;stroke:#000000;stroke-width:0.52916667;stroke-opacity:1;stroke-miterlimit:4;stroke-dasharray:none"
       d="m 41.641395,32.096147 24.15959,10.640476 v 49.217824 l -24.15959,11.305513 z"
       id="rect4848"
       inkscape:connector-curvature="0"
       sodipodi:nodetypes="ccccc" />
  </g>
  <g
     transform="translate(0,-0.26727531)"
     id="g4941"
     inkscape:export-xdpi="96"
     inkscape:export-ydpi="96"
     style="stroke-width:0.52916667;stroke-miterlimit:4;stroke-dasharray:none">
    <text
       xml:space="preserve"
       style="font-style:normal;font-weight:normal;font-size:9.72712326px;line-height:1.25;font-family:sans-serif;letter-spacing:0px;word-spacing:0px;fill:#000000;fill-opacity:1;stroke:none;stroke-width:0.52916666;stroke-miterlimit:4;stroke-dasharray:none"
       x="148.76997"
       y="63.684681"
       id="text4858-8"
       transform="scale(0.98129487,1.0190617)"><tspan
         sodipodi:role="line"
         id="tspan4856-5"
         x="148.76997"
         y="63.684681"
         style="stroke-width:0.52916666;stroke-miterlimit:4;stroke-dasharray:none">GRU</tspan><tspan
         sodipodi:role="line"
         x="148.76997"
         y="75.843582"
         style="stroke-width:0.52916666;stroke-miterlimit:4;stroke-dasharray:none"
         id="tspan4860-9">RNN</tspan></text>
    <path
       style="fill:none;stroke:#000000;stroke-width:0.52916667;stroke-opacity:1;stroke-miterlimit:4;stroke-dasharray:none"
       d="M 168.43247,102.99893 144.27288,92.35846 V 43.140641 l 24.15959,-11.305508 z"
       id="rect4848-1"
       inkscape:connector-curvature="0"
       sodipodi:nodetypes="ccccc" />
  </g>
  <g
     id="g4966"
     transform="translate(17.372519,-45.970359)"
     inkscape:export-xdpi="96"
     inkscape:export-ydpi="96">
    <g
       word-spacing="normal"
       letter-spacing="normal"
       font-size-adjust="none"
       font-stretch="normal"
       font-weight="normal"
       font-variant="normal"
       font-style="normal"
       stroke-miterlimit="10.433"
       xml:space="preserve"
       transform="matrix(0.3,0,0,-0.3,-52.5,222.75)"
       id="content"
       style="font-style:normal;font-variant:normal;font-weight:normal;font-stretch:normal;letter-spacing:normal;word-spacing:normal;text-anchor:start;fill:none;fill-opacity:1;fill-rule:evenodd;stroke:#000000;stroke-linecap:butt;stroke-linejoin:miter;stroke-miterlimit:10.43299961;stroke-dasharray:none;stroke-dashoffset:0;stroke-opacity:1" />  </g>
  <g
     id="g5457"
     inkscape:export-xdpi="96"
     inkscape:export-ydpi="96"
     style="stroke-width:0.52916667;stroke-miterlimit:4;stroke-dasharray:none">
    <rect
       style="fill:none;stroke:#000000;stroke-width:0.52916667;stroke-opacity:1;stroke-miterlimit:4;stroke-dasharray:none"
       id="rect4943"
       width="13.096207"
       height="46.504898"
       x="98.364418"
       y="43.895748" />
    <path
       style="fill:none;stroke:#000000;stroke-width:0.52916667;stroke-linecap:butt;stroke-linejoin:miter;stroke-miterlimit:4;stroke-dasharray:none;stroke-dashoffset:0;stroke-opacity:1"
       d="m 94.35537,58.061035 21.1143,-0.267272"
       id="path4945"
       inkscape:connector-curvature="0" />
    <path
       style="font-style:normal;font-variant:normal;font-weight:normal;font-stretch:normal;letter-spacing:normal;word-spacing:normal;text-anchor:start;fill:#000000;fill-opacity:1;fill-rule:evenodd;stroke:#000000;stroke-width:1.76388883;stroke-linecap:butt;stroke-linejoin:miter;stroke-miterlimit:4;stroke-dasharray:none;stroke-dashoffset:0;stroke-opacity:1"
       inkscape:connector-curvature="0"
       d="m 466.04,420.84 -0.18,0.03 -0.19,0.04 -0.19,0.04 -0.19,0.04 -0.2,0.04 -0.21,0.04 -0.42,0.1 -0.42,0.11 -0.21,0.06 -0.21,0.07 -0.21,0.07 -0.21,0.07 -0.2,0.08 -0.2,0.09 -0.19,0.09 -0.18,0.1 -0.18,0.11 -0.17,0.11 -0.16,0.11 -0.16,0.13 -0.14,0.13 -0.13,0.14 -0.12,0.15 -0.1,0.16 -0.09,0.17 -0.04,0.08 -0.04,0.09 -0.03,0.09 -0.03,0.1 -0.03,0.09 -0.02,0.1 -0.01,0.1 -0.01,0.11 -0.01,0.1 v 0.11 c 0,3.08 4.62,3.08 5.58,3.08 3.73,0 5.62,-1.44 5.87,-4.17 0.05,-0.75 0.09,-1 1.14,-1 1.2,0 1.2,0.25 1.2,1.39 v 3.98 c 0,0.95 0,1.39 -0.9,1.39 -0.19,0 -0.3,0 -2.24,-0.94 -1.29,0.64 -3.04,0.94 -5.03,0.94 -1.5,0 -9.17,0 -9.17,-6.51 0,-2 1,-3.35 2,-4.19 1.98,-1.75 3.88,-2.05 7.72,-2.74 1.8,-0.31 5.53,-0.95 5.53,-3.89 0,-3.73 -4.58,-3.73 -5.69,-3.73 -5.28,0 -6.58,3.62 -7.17,5.78 -0.25,0.69 -0.5,0.69 -1.19,0.69 -1.2,0 -1.2,-0.3 -1.2,-1.44 v -5.44 c 0,-0.93 0,-1.39 0.91,-1.39 0.34,0 0.43,0 1.48,0.75 0.05,0 1.16,0.75 1.3,0.85 2.29,-1.6 4.89,-1.6 5.87,-1.6 1.55,0 9.22,0 9.22,7.27 0,2.15 -1,3.89 -2.73,5.28 -1.94,1.45 -3.55,1.75 -7.42,2.39 z"
       id="path4963"
       transform="matrix(0.30000001,0,0,-0.30000001,-35.12748,176.77964)" />
    <g
       id="g5010"
       transform="translate(16.901519,-21.648832)"
       style="stroke-width:0.52916667;stroke-miterlimit:4;stroke-dasharray:none">
      <g
         word-spacing="normal"
         letter-spacing="normal"
         font-size-adjust="none"
         font-stretch="normal"
         font-weight="normal"
         font-variant="normal"
         font-style="normal"
         stroke-miterlimit="10.433"
         xml:space="preserve"
         transform="matrix(0.3,0,0,-0.3,-52.5,222.75)"
         id="g5008"
         style="font-style:normal;font-variant:normal;font-weight:normal;font-stretch:normal;letter-spacing:normal;word-spacing:normal;text-anchor:start;fill:none;fill-opacity:1;fill-rule:evenodd;stroke:#000000;stroke-linecap:butt;stroke-linejoin:miter;stroke-miterlimit:4;stroke-dasharray:none;stroke-dashoffset:0;stroke-opacity:1;stroke-width:1.76388889"><path
           id="path5006"
           d="m 473.46,426.48 -0.09,-0.08 -0.07,-0.07 -0.08,-0.08 -0.07,-0.08 -0.06,-0.08 -0.06,-0.08 -0.06,-0.08 -0.05,-0.08 -0.05,-0.08 -0.05,-0.08 -0.04,-0.09 -0.04,-0.08 -0.03,-0.08 -0.04,-0.08 -0.03,-0.08 -0.02,-0.08 -0.03,-0.07 -0.02,-0.08 -0.02,-0.08 -0.02,-0.07 -0.01,-0.07 -0.01,-0.07 -0.01,-0.07 -0.01,-0.07 -0.01,-0.06 -0.01,-0.06 v -0.06 l -0.01,-0.06 v -0.05 -0.05 -0.05 -0.05 c 0,-2.18 1.75,-3.14 3.09,-3.14 1.55,0 3.14,1.05 3.14,3.14 0,4.28 -5.78,4.58 -8.67,4.58 -8.92,0 -12.61,-5.72 -12.61,-11.5 0,-6.62 4.69,-11.36 12.36,-11.36 8.06,0 9.56,5.78 9.56,6.13 0,0.7 -0.7,0.7 -1.19,0.7 -0.9,0 -0.95,-0.11 -1.2,-0.75 -1.3,-3.14 -3.69,-4.09 -6.22,-4.09 -6.93,0 -6.93,7.32 -6.93,9.62 0,2.78 0,9.27 6.43,9.27 1.74,0 2.58,-0.16 3.24,-0.3 z"
           inkscape:connector-curvature="0"
           style="fill:#000000;stroke-width:1.76388889;stroke-miterlimit:4;stroke-dasharray:none" /></g>    </g>
  </g>
  <text
     xml:space="preserve"
     style="font-style:normal;font-variant:normal;font-weight:normal;font-stretch:normal;font-size:5.64444447px;line-height:1.25;font-family:sans-serif;-inkscape-font-specification:'sans-serif, Normal';font-variant-ligatures:normal;font-variant-caps:normal;font-variant-numeric:normal;font-feature-settings:normal;text-align:center;letter-spacing:0px;word-spacing:0px;writing-mode:lr-tb;text-anchor:middle;fill:#000000;fill-opacity:1;stroke:none;stroke-width:0.26458332"
     x="20.579754"
     y="65.177605"
     id="text6363"
     inkscape:export-xdpi="96"
     inkscape:export-ydpi="96"><tspan
       sodipodi:role="line"
       id="tspan6361"
       x="20.579754"
       y="65.177605"
       style="font-style:normal;font-variant:normal;font-weight:normal;font-stretch:normal;font-size:5.64444447px;font-family:sans-serif;-inkscape-font-specification:'sans-serif, Normal';font-variant-ligatures:normal;font-variant-caps:normal;font-variant-numeric:normal;font-feature-settings:normal;text-align:center;writing-mode:lr-tb;text-anchor:middle;stroke-width:0.26458332">the product</tspan><tspan
       sodipodi:role="line"
       x="20.579754"
       y="72.233154"
       style="font-style:normal;font-variant:normal;font-weight:normal;font-stretch:normal;font-size:5.64444447px;font-family:sans-serif;-inkscape-font-specification:'sans-serif, Normal';font-variant-ligatures:normal;font-variant-caps:normal;font-variant-numeric:normal;font-feature-settings:normal;text-align:center;writing-mode:lr-tb;text-anchor:middle;stroke-width:0.26458332"
       id="tspan6365">is great</tspan></text>
  <text
     xml:space="preserve"
     style="font-style:normal;font-variant:normal;font-weight:normal;font-stretch:normal;font-size:5.64444447px;line-height:1.25;font-family:sans-serif;-inkscape-font-specification:'sans-serif, Normal';font-variant-ligatures:normal;font-variant-caps:normal;font-variant-numeric:normal;font-feature-settings:normal;text-align:center;letter-spacing:0px;word-spacing:0px;writing-mode:lr-tb;text-anchor:middle;fill:#000000;fill-opacity:1;stroke:none;stroke-width:0.26458332"
     x="189.4872"
     y="65.177605"
     id="text6363-1"
     inkscape:export-xdpi="96"
     inkscape:export-ydpi="96"><tspan
       sodipodi:role="line"
       id="tspan6361-0"
       x="189.4872"
       y="65.177605"
       style="font-style:normal;font-variant:normal;font-weight:normal;font-stretch:normal;font-size:5.64444447px;font-family:sans-serif;-inkscape-font-specification:'sans-serif, Normal';font-variant-ligatures:normal;font-variant-caps:normal;font-variant-numeric:normal;font-feature-settings:normal;text-align:center;writing-mode:lr-tb;text-anchor:middle;stroke-width:0.26458332">the product</tspan><tspan
       sodipodi:role="line"
       x="189.4872"
       y="72.233162"
       style="font-style:normal;font-variant:normal;font-weight:normal;font-stretch:normal;font-size:5.64444447px;font-family:sans-serif;-inkscape-font-specification:'sans-serif, Normal';font-variant-ligatures:normal;font-variant-caps:normal;font-variant-numeric:normal;font-feature-settings:normal;text-align:center;writing-mode:lr-tb;text-anchor:middle;stroke-width:0.26458332"
       id="tspan6365-8">is great</tspan></text>
  <path
     style="fill:none;stroke:#000000;stroke-width:0.52916667;stroke-linecap:butt;stroke-linejoin:miter;stroke-opacity:1;stroke-miterlimit:4;stroke-dasharray:none;marker-end:url(#marker1497)"
     d="M 66.901784,64.922619 95.627975,51.315476"
     id="path80"
     inkscape:connector-curvature="0" />
  <path
     style="fill:none;stroke:#ff0000;stroke-width:0.265;stroke-linecap:butt;stroke-linejoin:miter;stroke-opacity:1;stroke-miterlimit:4;stroke-dasharray:none;marker-end:url(#marker1192)"
     d="m 66.901784,67.379463 29.104166,9.07143"
     id="path82"
     inkscape:connector-curvature="0" />
  <path
     style="fill:none;stroke:#ff0000;stroke-width:0.265;stroke-linecap:butt;stroke-linejoin:miter;stroke-opacity:1;stroke-miterlimit:4;stroke-dasharray:none;marker-end:url(#marker1250)"
     d="m 112.82589,76.072914 29.67113,-8.504462"
     id="path84"
     inkscape:connector-curvature="0" />
  <path
     style="fill:none;stroke:#000000;stroke-width:0.52916667;stroke-linecap:butt;stroke-linejoin:miter;stroke-opacity:1;stroke-miterlimit:4;stroke-dasharray:none;marker-end:url(#marker1567)"
     d="m 112.82589,49.614581 29.10417,13.985121"
     id="path86"
     inkscape:connector-curvature="0" />
  <text
     xml:space="preserve"
     style="font-style:normal;font-variant:normal;font-weight:normal;font-stretch:normal;font-size:5.64444447px;line-height:1.25;font-family:sans-serif;-inkscape-font-specification:'sans-serif, Normal';font-variant-ligatures:normal;font-variant-caps:normal;font-variant-numeric:normal;font-feature-settings:normal;text-align:center;letter-spacing:0px;word-spacing:0px;writing-mode:lr-tb;text-anchor:middle;fill:#ff0000;fill-opacity:1;stroke:none;stroke-width:0.26458332;"
     x="79.941963"
     y="82.498512"
     id="text1314"><tspan
       sodipodi:role="line"
       id="tspan1334"
       x="79.941963"
       y="82.498512">encoded</tspan><tspan
       sodipodi:role="line"
       id="tspan1336"
       x="79.941963"
       y="89.55407">noise</tspan></text>
  <text
     xml:space="preserve"
     style="font-style:normal;font-variant:normal;font-weight:normal;font-stretch:normal;font-size:5.64444447px;line-height:1.25;font-family:sans-serif;-inkscape-font-specification:'sans-serif, Normal';font-variant-ligatures:normal;font-variant-caps:normal;font-variant-numeric:normal;font-feature-settings:normal;text-align:center;letter-spacing:0px;word-spacing:0px;writing-mode:lr-tb;text-anchor:middle;fill:#ff0000;fill-opacity:1;stroke:none;stroke-width:0.26458332"
     x="126.53363"
     y="82.586906"
     id="text1314-6"><tspan
       sodipodi:role="line"
       id="tspan1359"
       x="126.53363"
       y="82.586906">ignored</tspan></text>
</svg>
